<svg width="353" height="143" viewBox="0 0 353 143" fill="none" xmlns="http://www.w3.org/2000/svg">
  <path
    d="M66.1461 134.434C65.6695 134.434 65.2551 134.346 64.9031 134.17C64.5511 133.986 64.2615 133.726 64.0341 133.389C63.8068 133.051 63.6381 132.637 63.5281 132.146C63.4181 131.654 63.3631 131.093 63.3631 130.463C63.3631 129.839 63.4181 129.282 63.5281 128.791C63.6381 128.292 63.8068 127.874 64.0341 127.537C64.2615 127.199 64.5511 126.943 64.9031 126.767C65.2551 126.583 65.6695 126.492 66.1461 126.492C67.0995 126.492 67.7998 126.84 68.2471 127.537C68.7018 128.233 68.9291 129.209 68.9291 130.463C68.9291 131.717 68.7018 132.692 68.2471 133.389C67.7998 134.085 67.0995 134.434 66.1461 134.434ZM66.1461 133.378C66.4101 133.378 66.6338 133.326 66.8171 133.224C67.0078 133.114 67.1618 132.96 67.2791 132.762C67.3965 132.564 67.4808 132.329 67.5321 132.058C67.5835 131.779 67.6091 131.471 67.6091 131.134V129.792C67.6091 129.454 67.5835 129.15 67.5321 128.879C67.4808 128.6 67.3965 128.362 67.2791 128.164C67.1618 127.966 67.0078 127.815 66.8171 127.713C66.6338 127.603 66.4101 127.548 66.1461 127.548C65.8821 127.548 65.6548 127.603 65.4641 127.713C65.2808 127.815 65.1305 127.966 65.0131 128.164C64.8958 128.362 64.8115 128.6 64.7601 128.879C64.7088 129.15 64.6831 129.454 64.6831 129.792V131.134C64.6831 131.471 64.7088 131.779 64.7601 132.058C64.8115 132.329 64.8958 132.564 65.0131 132.762C65.1305 132.96 65.2808 133.114 65.4641 133.224C65.6548 133.326 65.8821 133.378 66.1461 133.378ZM73.8968 133.356H73.8418C73.7172 133.693 73.5118 133.957 73.2258 134.148C72.9472 134.338 72.6172 134.434 72.2358 134.434C71.5098 134.434 70.9488 134.173 70.5528 133.653C70.1568 133.125 69.9588 132.388 69.9588 131.442C69.9588 130.496 70.1568 129.762 70.5528 129.242C70.9488 128.714 71.5098 128.45 72.2358 128.45C72.6172 128.45 72.9472 128.545 73.2258 128.736C73.5118 128.919 73.7172 129.183 73.8418 129.528H73.8968V127.702H72.2908V126.833H73.8968V126.162H75.0958V126.833H75.7888V127.702H75.0958V134.302H73.8968V133.356ZM72.5988 133.4C72.9655 133.4 73.2735 133.312 73.5228 133.136C73.7722 132.952 73.8968 132.714 73.8968 132.421V130.463C73.8968 130.169 73.7722 129.935 73.5228 129.759C73.2735 129.575 72.9655 129.484 72.5988 129.484C72.1808 129.484 71.8472 129.619 71.5978 129.891C71.3485 130.155 71.2238 130.507 71.2238 130.947V131.937C71.2238 132.377 71.3485 132.732 71.5978 133.004C71.8472 133.268 72.1808 133.4 72.5988 133.4Z"
    fill="black" />
  <path
    d="M117.843 135.302V134.268H119.999V128.526H119.911L118.129 130.429L117.37 129.747L119.328 127.624H121.22V134.268H123.09V135.302H117.843ZM125.066 135.434C124.794 135.434 124.593 135.364 124.461 135.225C124.329 135.078 124.263 134.898 124.263 134.686V134.521C124.263 134.308 124.329 134.132 124.461 133.993C124.593 133.846 124.794 133.773 125.066 133.773C125.337 133.773 125.539 133.846 125.671 133.993C125.803 134.132 125.869 134.308 125.869 134.521V134.686C125.869 134.898 125.803 135.078 125.671 135.225C125.539 135.364 125.337 135.434 125.066 135.434ZM129.961 135.434C129.484 135.434 129.07 135.346 128.718 135.17C128.366 134.986 128.076 134.726 127.849 134.389C127.622 134.051 127.453 133.637 127.343 133.146C127.233 132.654 127.178 132.093 127.178 131.463C127.178 130.839 127.233 130.282 127.343 129.791C127.453 129.292 127.622 128.874 127.849 128.537C128.076 128.199 128.366 127.943 128.718 127.767C129.07 127.583 129.484 127.492 129.961 127.492C130.914 127.492 131.615 127.84 132.062 128.537C132.517 129.233 132.744 130.209 132.744 131.463C132.744 132.717 132.517 133.692 132.062 134.389C131.615 135.085 130.914 135.434 129.961 135.434ZM129.961 134.378C130.225 134.378 130.449 134.326 130.632 134.224C130.823 134.114 130.977 133.96 131.094 133.762C131.211 133.564 131.296 133.329 131.347 133.058C131.398 132.779 131.424 132.471 131.424 132.134V130.792C131.424 130.454 131.398 130.15 131.347 129.879C131.296 129.6 131.211 129.362 131.094 129.164C130.977 128.966 130.823 128.815 130.632 128.713C130.449 128.603 130.225 128.548 129.961 128.548C129.697 128.548 129.47 128.603 129.279 128.713C129.096 128.815 128.945 128.966 128.828 129.164C128.711 129.362 128.626 129.6 128.575 129.879C128.524 130.15 128.498 130.454 128.498 130.792V132.134C128.498 132.471 128.524 132.779 128.575 133.058C128.626 133.329 128.711 133.564 128.828 133.762C128.945 133.96 129.096 134.114 129.279 134.224C129.47 134.326 129.697 134.378 129.961 134.378ZM136.557 135.434C136.08 135.434 135.666 135.346 135.314 135.17C134.962 134.986 134.672 134.726 134.445 134.389C134.217 134.051 134.049 133.637 133.939 133.146C133.829 132.654 133.774 132.093 133.774 131.463C133.774 130.839 133.829 130.282 133.939 129.791C134.049 129.292 134.217 128.874 134.445 128.537C134.672 128.199 134.962 127.943 135.314 127.767C135.666 127.583 136.08 127.492 136.557 127.492C137.51 127.492 138.21 127.84 138.658 128.537C139.112 129.233 139.34 130.209 139.34 131.463C139.34 132.717 139.112 133.692 138.658 134.389C138.21 135.085 137.51 135.434 136.557 135.434ZM136.557 134.378C136.821 134.378 137.044 134.326 137.228 134.224C137.418 134.114 137.572 133.96 137.69 133.762C137.807 133.564 137.891 133.329 137.943 133.058C137.994 132.779 138.02 132.471 138.02 132.134V130.792C138.02 130.454 137.994 130.15 137.943 129.879C137.891 129.6 137.807 129.362 137.69 129.164C137.572 128.966 137.418 128.815 137.228 128.713C137.044 128.603 136.821 128.548 136.557 128.548C136.293 128.548 136.065 128.603 135.875 128.713C135.691 128.815 135.541 128.966 135.424 129.164C135.306 129.362 135.222 129.6 135.171 129.879C135.119 130.15 135.094 130.454 135.094 130.792V132.134C135.094 132.471 135.119 132.779 135.171 133.058C135.222 133.329 135.306 133.564 135.424 133.762C135.541 133.96 135.691 134.114 135.875 134.224C136.065 134.326 136.293 134.378 136.557 134.378ZM143.152 135.434C142.676 135.434 142.261 135.346 141.909 135.17C141.557 134.986 141.268 134.726 141.04 134.389C140.813 134.051 140.644 133.637 140.534 133.146C140.424 132.654 140.369 132.093 140.369 131.463C140.369 130.839 140.424 130.282 140.534 129.791C140.644 129.292 140.813 128.874 141.04 128.537C141.268 128.199 141.557 127.943 141.909 127.767C142.261 127.583 142.676 127.492 143.152 127.492C144.106 127.492 144.806 127.84 145.253 128.537C145.708 129.233 145.935 130.209 145.935 131.463C145.935 132.717 145.708 133.692 145.253 134.389C144.806 135.085 144.106 135.434 143.152 135.434ZM143.152 134.378C143.416 134.378 143.64 134.326 143.823 134.224C144.014 134.114 144.168 133.96 144.285 133.762C144.403 133.564 144.487 133.329 144.538 133.058C144.59 132.779 144.615 132.471 144.615 132.134V130.792C144.615 130.454 144.59 130.15 144.538 129.879C144.487 129.6 144.403 129.362 144.285 129.164C144.168 128.966 144.014 128.815 143.823 128.713C143.64 128.603 143.416 128.548 143.152 128.548C142.888 128.548 142.661 128.603 142.47 128.713C142.287 128.815 142.137 128.966 142.019 129.164C141.902 129.362 141.818 129.6 141.766 129.879C141.715 130.15 141.689 130.454 141.689 130.792V132.134C141.689 132.471 141.715 132.779 141.766 133.058C141.818 133.329 141.902 133.564 142.019 133.762C142.137 133.96 142.287 134.114 142.47 134.224C142.661 134.326 142.888 134.378 143.152 134.378ZM148.043 135.434C147.772 135.434 147.57 135.364 147.438 135.225C147.306 135.078 147.24 134.898 147.24 134.686V134.521C147.24 134.308 147.306 134.132 147.438 133.993C147.57 133.846 147.772 133.773 148.043 133.773C148.314 133.773 148.516 133.846 148.648 133.993C148.78 134.132 148.846 134.308 148.846 134.521V134.686C148.846 134.898 148.78 135.078 148.648 135.225C148.516 135.364 148.314 135.434 148.043 135.434ZM152.939 135.434C152.462 135.434 152.048 135.346 151.696 135.17C151.344 134.986 151.054 134.726 150.827 134.389C150.599 134.051 150.431 133.637 150.321 133.146C150.211 132.654 150.156 132.093 150.156 131.463C150.156 130.839 150.211 130.282 150.321 129.791C150.431 129.292 150.599 128.874 150.827 128.537C151.054 128.199 151.344 127.943 151.696 127.767C152.048 127.583 152.462 127.492 152.939 127.492C153.892 127.492 154.592 127.84 155.04 128.537C155.494 129.233 155.722 130.209 155.722 131.463C155.722 132.717 155.494 133.692 155.04 134.389C154.592 135.085 153.892 135.434 152.939 135.434ZM152.939 134.378C153.203 134.378 153.426 134.326 153.61 134.224C153.8 134.114 153.954 133.96 154.072 133.762C154.189 133.564 154.273 133.329 154.325 133.058C154.376 132.779 154.402 132.471 154.402 132.134V130.792C154.402 130.454 154.376 130.15 154.325 129.879C154.273 129.6 154.189 129.362 154.072 129.164C153.954 128.966 153.8 128.815 153.61 128.713C153.426 128.603 153.203 128.548 152.939 128.548C152.675 128.548 152.447 128.603 152.257 128.713C152.073 128.815 151.923 128.966 151.806 129.164C151.688 129.362 151.604 129.6 151.553 129.879C151.501 130.15 151.476 130.454 151.476 130.792V132.134C151.476 132.471 151.501 132.779 151.553 133.058C151.604 133.329 151.688 133.564 151.806 133.762C151.923 133.96 152.073 134.114 152.257 134.224C152.447 134.326 152.675 134.378 152.939 134.378ZM159.534 135.434C159.058 135.434 158.643 135.346 158.291 135.17C157.939 134.986 157.65 134.726 157.422 134.389C157.195 134.051 157.026 133.637 156.916 133.146C156.806 132.654 156.751 132.093 156.751 131.463C156.751 130.839 156.806 130.282 156.916 129.791C157.026 129.292 157.195 128.874 157.422 128.537C157.65 128.199 157.939 127.943 158.291 127.767C158.643 127.583 159.058 127.492 159.534 127.492C160.488 127.492 161.188 127.84 161.635 128.537C162.09 129.233 162.317 130.209 162.317 131.463C162.317 132.717 162.09 133.692 161.635 134.389C161.188 135.085 160.488 135.434 159.534 135.434ZM159.534 134.378C159.798 134.378 160.022 134.326 160.205 134.224C160.396 134.114 160.55 133.96 160.667 133.762C160.785 133.564 160.869 133.329 160.92 133.058C160.972 132.779 160.997 132.471 160.997 132.134V130.792C160.997 130.454 160.972 130.15 160.92 129.879C160.869 129.6 160.785 129.362 160.667 129.164C160.55 128.966 160.396 128.815 160.205 128.713C160.022 128.603 159.798 128.548 159.534 128.548C159.27 128.548 159.043 128.603 158.852 128.713C158.669 128.815 158.519 128.966 158.401 129.164C158.284 129.362 158.2 129.6 158.148 129.879C158.097 130.15 158.071 130.454 158.071 130.792V132.134C158.071 132.471 158.097 132.779 158.148 133.058C158.2 133.329 158.284 133.564 158.401 133.762C158.519 133.96 158.669 134.114 158.852 134.224C159.043 134.326 159.27 134.378 159.534 134.378ZM166.13 135.434C165.653 135.434 165.239 135.346 164.887 135.17C164.535 134.986 164.245 134.726 164.018 134.389C163.791 134.051 163.622 133.637 163.512 133.146C163.402 132.654 163.347 132.093 163.347 131.463C163.347 130.839 163.402 130.282 163.512 129.791C163.622 129.292 163.791 128.874 164.018 128.537C164.245 128.199 164.535 127.943 164.887 127.767C165.239 127.583 165.653 127.492 166.13 127.492C167.083 127.492 167.784 127.84 168.231 128.537C168.686 129.233 168.913 130.209 168.913 131.463C168.913 132.717 168.686 133.692 168.231 134.389C167.784 135.085 167.083 135.434 166.13 135.434ZM166.13 134.378C166.394 134.378 166.618 134.326 166.801 134.224C166.992 134.114 167.146 133.96 167.263 133.762C167.38 133.564 167.465 133.329 167.516 133.058C167.567 132.779 167.593 132.471 167.593 132.134V130.792C167.593 130.454 167.567 130.15 167.516 129.879C167.465 129.6 167.38 129.362 167.263 129.164C167.146 128.966 166.992 128.815 166.801 128.713C166.618 128.603 166.394 128.548 166.13 128.548C165.866 128.548 165.639 128.603 165.448 128.713C165.265 128.815 165.114 128.966 164.997 129.164C164.88 129.362 164.795 129.6 164.744 129.879C164.693 130.15 164.667 130.454 164.667 130.792V132.134C164.667 132.471 164.693 132.779 164.744 133.058C164.795 133.329 164.88 133.564 164.997 133.762C165.114 133.96 165.265 134.114 165.448 134.224C165.639 134.326 165.866 134.378 166.13 134.378ZM173.881 134.356H173.826C173.701 134.693 173.496 134.957 173.21 135.148C172.931 135.338 172.601 135.434 172.22 135.434C171.494 135.434 170.933 135.173 170.537 134.653C170.141 134.125 169.943 133.388 169.943 132.442C169.943 131.496 170.141 130.762 170.537 130.242C170.933 129.714 171.494 129.45 172.22 129.45C172.601 129.45 172.931 129.545 173.21 129.736C173.496 129.919 173.701 130.183 173.826 130.528H173.881V128.702H172.275V127.833H173.881V127.162H175.08V127.833H175.773V128.702H175.08V135.302H173.881V134.356ZM172.583 134.4C172.949 134.4 173.257 134.312 173.507 134.136C173.756 133.952 173.881 133.714 173.881 133.421V131.463C173.881 131.169 173.756 130.935 173.507 130.759C173.257 130.575 172.949 130.484 172.583 130.484C172.165 130.484 171.831 130.619 171.582 130.891C171.332 131.155 171.208 131.507 171.208 131.947V132.937C171.208 133.377 171.332 133.732 171.582 134.004C171.831 134.268 172.165 134.4 172.583 134.4Z"
    fill="black" />
  <path
    d="M200.706 130.702H197.296L197.098 133.419H197.175C197.263 133.265 197.355 133.129 197.45 133.012C197.546 132.887 197.656 132.781 197.78 132.693C197.905 132.605 198.048 132.539 198.209 132.495C198.371 132.443 198.561 132.418 198.781 132.418C199.111 132.418 199.416 132.473 199.694 132.583C199.98 132.693 200.226 132.85 200.431 133.056C200.644 133.261 200.809 133.514 200.926 133.815C201.044 134.108 201.102 134.442 201.102 134.816C201.102 135.197 201.04 135.549 200.915 135.872C200.798 136.194 200.622 136.473 200.387 136.708C200.153 136.935 199.863 137.115 199.518 137.247C199.181 137.371 198.796 137.434 198.363 137.434C198.019 137.434 197.714 137.393 197.45 137.313C197.186 137.239 196.952 137.14 196.746 137.016C196.548 136.884 196.372 136.737 196.218 136.576C196.072 136.407 195.94 136.235 195.822 136.059L196.724 135.344C196.82 135.498 196.919 135.637 197.021 135.762C197.124 135.886 197.241 135.996 197.373 136.092C197.505 136.187 197.652 136.26 197.813 136.312C197.982 136.363 198.173 136.389 198.385 136.389C198.84 136.389 199.188 136.264 199.43 136.015C199.68 135.765 199.804 135.421 199.804 134.981V134.849C199.804 134.409 199.68 134.064 199.43 133.815C199.188 133.565 198.84 133.441 198.385 133.441C198.055 133.441 197.791 133.503 197.593 133.628C197.395 133.752 197.227 133.892 197.087 134.046L196.064 133.903L196.35 129.624H200.706V130.702ZM205.014 137.434C204.537 137.434 204.123 137.346 203.771 137.17C203.419 136.986 203.129 136.726 202.902 136.389C202.675 136.051 202.506 135.637 202.396 135.146C202.286 134.654 202.231 134.093 202.231 133.463C202.231 132.839 202.286 132.282 202.396 131.791C202.506 131.292 202.675 130.874 202.902 130.537C203.129 130.199 203.419 129.943 203.771 129.767C204.123 129.583 204.537 129.492 205.014 129.492C205.967 129.492 206.668 129.84 207.115 130.537C207.57 131.233 207.797 132.209 207.797 133.463C207.797 134.717 207.57 135.692 207.115 136.389C206.668 137.085 205.967 137.434 205.014 137.434ZM205.014 136.378C205.278 136.378 205.502 136.326 205.685 136.224C205.876 136.114 206.03 135.96 206.147 135.762C206.264 135.564 206.349 135.329 206.4 135.058C206.451 134.779 206.477 134.471 206.477 134.134V132.792C206.477 132.454 206.451 132.15 206.4 131.879C206.349 131.6 206.264 131.362 206.147 131.164C206.03 130.966 205.876 130.815 205.685 130.713C205.502 130.603 205.278 130.548 205.014 130.548C204.75 130.548 204.523 130.603 204.332 130.713C204.149 130.815 203.998 130.966 203.881 131.164C203.764 131.362 203.679 131.6 203.628 131.879C203.577 132.15 203.551 132.454 203.551 132.792V134.134C203.551 134.471 203.577 134.779 203.628 135.058C203.679 135.329 203.764 135.564 203.881 135.762C203.998 135.96 204.149 136.114 204.332 136.224C204.523 136.326 204.75 136.378 205.014 136.378ZM209.905 137.434C209.634 137.434 209.432 137.364 209.3 137.225C209.168 137.078 209.102 136.898 209.102 136.686V136.521C209.102 136.308 209.168 136.132 209.3 135.993C209.432 135.846 209.634 135.773 209.905 135.773C210.176 135.773 210.378 135.846 210.51 135.993C210.642 136.132 210.708 136.308 210.708 136.521V136.686C210.708 136.898 210.642 137.078 210.51 137.225C210.378 137.364 210.176 137.434 209.905 137.434ZM214.8 137.434C214.324 137.434 213.909 137.346 213.557 137.17C213.205 136.986 212.916 136.726 212.688 136.389C212.461 136.051 212.292 135.637 212.182 135.146C212.072 134.654 212.017 134.093 212.017 133.463C212.017 132.839 212.072 132.282 212.182 131.791C212.292 131.292 212.461 130.874 212.688 130.537C212.916 130.199 213.205 129.943 213.557 129.767C213.909 129.583 214.324 129.492 214.8 129.492C215.754 129.492 216.454 129.84 216.901 130.537C217.356 131.233 217.583 132.209 217.583 133.463C217.583 134.717 217.356 135.692 216.901 136.389C216.454 137.085 215.754 137.434 214.8 137.434ZM214.8 136.378C215.064 136.378 215.288 136.326 215.471 136.224C215.662 136.114 215.816 135.96 215.933 135.762C216.051 135.564 216.135 135.329 216.186 135.058C216.238 134.779 216.263 134.471 216.263 134.134V132.792C216.263 132.454 216.238 132.15 216.186 131.879C216.135 131.6 216.051 131.362 215.933 131.164C215.816 130.966 215.662 130.815 215.471 130.713C215.288 130.603 215.064 130.548 214.8 130.548C214.536 130.548 214.309 130.603 214.118 130.713C213.935 130.815 213.785 130.966 213.667 131.164C213.55 131.362 213.466 131.6 213.414 131.879C213.363 132.15 213.337 132.454 213.337 132.792V134.134C213.337 134.471 213.363 134.779 213.414 135.058C213.466 135.329 213.55 135.564 213.667 135.762C213.785 135.96 213.935 136.114 214.118 136.224C214.309 136.326 214.536 136.378 214.8 136.378ZM221.396 137.434C220.919 137.434 220.505 137.346 220.153 137.17C219.801 136.986 219.511 136.726 219.284 136.389C219.057 136.051 218.888 135.637 218.778 135.146C218.668 134.654 218.613 134.093 218.613 133.463C218.613 132.839 218.668 132.282 218.778 131.791C218.888 131.292 219.057 130.874 219.284 130.537C219.511 130.199 219.801 129.943 220.153 129.767C220.505 129.583 220.919 129.492 221.396 129.492C222.349 129.492 223.05 129.84 223.497 130.537C223.952 131.233 224.179 132.209 224.179 133.463C224.179 134.717 223.952 135.692 223.497 136.389C223.05 137.085 222.349 137.434 221.396 137.434ZM221.396 136.378C221.66 136.378 221.884 136.326 222.067 136.224C222.258 136.114 222.412 135.96 222.529 135.762C222.646 135.564 222.731 135.329 222.782 135.058C222.833 134.779 222.859 134.471 222.859 134.134V132.792C222.859 132.454 222.833 132.15 222.782 131.879C222.731 131.6 222.646 131.362 222.529 131.164C222.412 130.966 222.258 130.815 222.067 130.713C221.884 130.603 221.66 130.548 221.396 130.548C221.132 130.548 220.905 130.603 220.714 130.713C220.531 130.815 220.38 130.966 220.263 131.164C220.146 131.362 220.061 131.6 220.01 131.879C219.959 132.15 219.933 132.454 219.933 132.792V134.134C219.933 134.471 219.959 134.779 220.01 135.058C220.061 135.329 220.146 135.564 220.263 135.762C220.38 135.96 220.531 136.114 220.714 136.224C220.905 136.326 221.132 136.378 221.396 136.378ZM227.992 137.434C227.515 137.434 227.101 137.346 226.749 137.17C226.397 136.986 226.107 136.726 225.88 136.389C225.652 136.051 225.484 135.637 225.374 135.146C225.264 134.654 225.209 134.093 225.209 133.463C225.209 132.839 225.264 132.282 225.374 131.791C225.484 131.292 225.652 130.874 225.88 130.537C226.107 130.199 226.397 129.943 226.749 129.767C227.101 129.583 227.515 129.492 227.992 129.492C228.945 129.492 229.645 129.84 230.093 130.537C230.547 131.233 230.775 132.209 230.775 133.463C230.775 134.717 230.547 135.692 230.093 136.389C229.645 137.085 228.945 137.434 227.992 137.434ZM227.992 136.378C228.256 136.378 228.479 136.326 228.663 136.224C228.853 136.114 229.007 135.96 229.125 135.762C229.242 135.564 229.326 135.329 229.378 135.058C229.429 134.779 229.455 134.471 229.455 134.134V132.792C229.455 132.454 229.429 132.15 229.378 131.879C229.326 131.6 229.242 131.362 229.125 131.164C229.007 130.966 228.853 130.815 228.663 130.713C228.479 130.603 228.256 130.548 227.992 130.548C227.728 130.548 227.5 130.603 227.31 130.713C227.126 130.815 226.976 130.966 226.859 131.164C226.741 131.362 226.657 131.6 226.606 131.879C226.554 132.15 226.529 132.454 226.529 132.792V134.134C226.529 134.471 226.554 134.779 226.606 135.058C226.657 135.329 226.741 135.564 226.859 135.762C226.976 135.96 227.126 136.114 227.31 136.224C227.5 136.326 227.728 136.378 227.992 136.378ZM232.882 137.434C232.611 137.434 232.409 137.364 232.277 137.225C232.145 137.078 232.079 136.898 232.079 136.686V136.521C232.079 136.308 232.145 136.132 232.277 135.993C232.409 135.846 232.611 135.773 232.882 135.773C233.154 135.773 233.355 135.846 233.487 135.993C233.619 136.132 233.685 136.308 233.685 136.521V136.686C233.685 136.898 233.619 137.078 233.487 137.225C233.355 137.364 233.154 137.434 232.882 137.434ZM237.778 137.434C237.301 137.434 236.887 137.346 236.535 137.17C236.183 136.986 235.893 136.726 235.666 136.389C235.438 136.051 235.27 135.637 235.16 135.146C235.05 134.654 234.995 134.093 234.995 133.463C234.995 132.839 235.05 132.282 235.16 131.791C235.27 131.292 235.438 130.874 235.666 130.537C235.893 130.199 236.183 129.943 236.535 129.767C236.887 129.583 237.301 129.492 237.778 129.492C238.731 129.492 239.431 129.84 239.879 130.537C240.333 131.233 240.561 132.209 240.561 133.463C240.561 134.717 240.333 135.692 239.879 136.389C239.431 137.085 238.731 137.434 237.778 137.434ZM237.778 136.378C238.042 136.378 238.265 136.326 238.449 136.224C238.639 136.114 238.793 135.96 238.911 135.762C239.028 135.564 239.112 135.329 239.164 135.058C239.215 134.779 239.241 134.471 239.241 134.134V132.792C239.241 132.454 239.215 132.15 239.164 131.879C239.112 131.6 239.028 131.362 238.911 131.164C238.793 130.966 238.639 130.815 238.449 130.713C238.265 130.603 238.042 130.548 237.778 130.548C237.514 130.548 237.286 130.603 237.096 130.713C236.912 130.815 236.762 130.966 236.645 131.164C236.527 131.362 236.443 131.6 236.392 131.879C236.34 132.15 236.315 132.454 236.315 132.792V134.134C236.315 134.471 236.34 134.779 236.392 135.058C236.443 135.329 236.527 135.564 236.645 135.762C236.762 135.96 236.912 136.114 237.096 136.224C237.286 136.326 237.514 136.378 237.778 136.378ZM244.374 137.434C243.897 137.434 243.483 137.346 243.131 137.17C242.779 136.986 242.489 136.726 242.262 136.389C242.034 136.051 241.866 135.637 241.756 135.146C241.646 134.654 241.591 134.093 241.591 133.463C241.591 132.839 241.646 132.282 241.756 131.791C241.866 131.292 242.034 130.874 242.262 130.537C242.489 130.199 242.779 129.943 243.131 129.767C243.483 129.583 243.897 129.492 244.374 129.492C245.327 129.492 246.027 129.84 246.475 130.537C246.929 131.233 247.157 132.209 247.157 133.463C247.157 134.717 246.929 135.692 246.475 136.389C246.027 137.085 245.327 137.434 244.374 137.434ZM244.374 136.378C244.638 136.378 244.861 136.326 245.045 136.224C245.235 136.114 245.389 135.96 245.507 135.762C245.624 135.564 245.708 135.329 245.76 135.058C245.811 134.779 245.837 134.471 245.837 134.134V132.792C245.837 132.454 245.811 132.15 245.76 131.879C245.708 131.6 245.624 131.362 245.507 131.164C245.389 130.966 245.235 130.815 245.045 130.713C244.861 130.603 244.638 130.548 244.374 130.548C244.11 130.548 243.882 130.603 243.692 130.713C243.508 130.815 243.358 130.966 243.241 131.164C243.123 131.362 243.039 131.6 242.988 131.879C242.936 132.15 242.911 132.454 242.911 132.792V134.134C242.911 134.471 242.936 134.779 242.988 135.058C243.039 135.329 243.123 135.564 243.241 135.762C243.358 135.96 243.508 136.114 243.692 136.224C243.882 136.326 244.11 136.378 244.374 136.378ZM250.969 137.434C250.493 137.434 250.078 137.346 249.726 137.17C249.374 136.986 249.085 136.726 248.857 136.389C248.63 136.051 248.461 135.637 248.351 135.146C248.241 134.654 248.186 134.093 248.186 133.463C248.186 132.839 248.241 132.282 248.351 131.791C248.461 131.292 248.63 130.874 248.857 130.537C249.085 130.199 249.374 129.943 249.726 129.767C250.078 129.583 250.493 129.492 250.969 129.492C251.923 129.492 252.623 129.84 253.07 130.537C253.525 131.233 253.752 132.209 253.752 133.463C253.752 134.717 253.525 135.692 253.07 136.389C252.623 137.085 251.923 137.434 250.969 137.434ZM250.969 136.378C251.233 136.378 251.457 136.326 251.64 136.224C251.831 136.114 251.985 135.96 252.102 135.762C252.22 135.564 252.304 135.329 252.355 135.058C252.407 134.779 252.432 134.471 252.432 134.134V132.792C252.432 132.454 252.407 132.15 252.355 131.879C252.304 131.6 252.22 131.362 252.102 131.164C251.985 130.966 251.831 130.815 251.64 130.713C251.457 130.603 251.233 130.548 250.969 130.548C250.705 130.548 250.478 130.603 250.287 130.713C250.104 130.815 249.954 130.966 249.836 131.164C249.719 131.362 249.635 131.6 249.583 131.879C249.532 132.15 249.506 132.454 249.506 132.792V134.134C249.506 134.471 249.532 134.779 249.583 135.058C249.635 135.329 249.719 135.564 249.836 135.762C249.954 135.96 250.104 136.114 250.287 136.224C250.478 136.326 250.705 136.378 250.969 136.378ZM258.72 136.356H258.665C258.54 136.693 258.335 136.957 258.049 137.148C257.77 137.338 257.44 137.434 257.059 137.434C256.333 137.434 255.772 137.173 255.376 136.653C254.98 136.125 254.782 135.388 254.782 134.442C254.782 133.496 254.98 132.762 255.376 132.242C255.772 131.714 256.333 131.45 257.059 131.45C257.44 131.45 257.77 131.545 258.049 131.736C258.335 131.919 258.54 132.183 258.665 132.528H258.72V130.702H257.114V129.833H258.72V129.162H259.919V129.833H260.612V130.702H259.919V137.302H258.72V136.356ZM257.422 136.4C257.789 136.4 258.097 136.312 258.346 136.136C258.595 135.952 258.72 135.714 258.72 135.421V133.463C258.72 133.169 258.595 132.935 258.346 132.759C258.097 132.575 257.789 132.484 257.422 132.484C257.004 132.484 256.67 132.619 256.421 132.891C256.172 133.155 256.047 133.507 256.047 133.947V134.937C256.047 135.377 256.172 135.732 256.421 136.004C256.67 136.268 257.004 136.4 257.422 136.4ZM266.124 137.302L263.605 129.624H264.892L266.113 133.419L266.85 136.092H266.894L267.642 133.419L268.863 129.624H270.117L267.565 137.302H266.124ZM270.93 137.302V136.29H271.975V130.636H270.93V129.624H274.274V130.636H273.218V136.29H274.274V137.302H270.93ZM275.836 137.302V129.624H279.136C279.847 129.624 280.397 129.833 280.786 130.251C281.175 130.669 281.369 131.23 281.369 131.934C281.369 132.638 281.175 133.199 280.786 133.617C280.397 134.035 279.847 134.244 279.136 134.244H277.079V137.302H275.836ZM277.079 133.155H279.059C279.374 133.155 279.62 133.074 279.796 132.913C279.972 132.744 280.06 132.506 280.06 132.198V131.67C280.06 131.362 279.972 131.127 279.796 130.966C279.62 130.797 279.374 130.713 279.059 130.713H277.079V133.155Z"
    fill="black" />
  <rect x="52" y="81" width="36" height="41" fill="#3EA4F3" />
  <rect x="129" y="53" width="36" height="69" fill="#3EA4F3" />
  <rect x="206" y="31" width="36" height="91" fill="#3EA4F3" />
  <path d="M24.1108 0.317459V121.984L350.301 123.137L352 123.143" stroke="black" />
  <path
    d="M5.951 91H0.737V89.812L3.19 87.623C3.57867 87.271 3.87567 86.9373 4.081 86.622C4.29367 86.2993 4.4 85.962 4.4 85.61V85.467C4.4 85.093 4.28633 84.7997 4.059 84.587C3.839 84.3743 3.53833 84.268 3.157 84.268C2.94433 84.268 2.75733 84.301 2.596 84.367C2.442 84.4257 2.30633 84.51 2.189 84.62C2.07167 84.73 1.97267 84.8583 1.892 85.005C1.81867 85.1517 1.76 85.3093 1.716 85.478L0.627 85.06C0.707667 84.818 0.817667 84.587 0.957 84.367C1.09633 84.1397 1.27233 83.938 1.485 83.762C1.69767 83.586 1.947 83.4467 2.233 83.344C2.52633 83.2413 2.86733 83.19 3.256 83.19C3.64467 83.19 3.993 83.2487 4.301 83.366C4.609 83.476 4.86567 83.6337 5.071 83.839C5.28367 84.037 5.445 84.2753 5.555 84.554C5.665 84.8327 5.72 85.137 5.72 85.467C5.72 85.775 5.67233 86.061 5.577 86.325C5.48167 86.589 5.34967 86.8383 5.181 87.073C5.01233 87.3077 4.81433 87.5313 4.587 87.744C4.367 87.9567 4.13233 88.173 3.883 88.393L2.079 89.944H5.951V91ZM9.8957 91.132C9.41904 91.132 9.0047 91.044 8.6527 90.868C8.3007 90.6847 8.01104 90.4243 7.7837 90.087C7.55637 89.7497 7.3877 89.3353 7.2777 88.844C7.1677 88.3527 7.1127 87.7917 7.1127 87.161C7.1127 86.5377 7.1677 85.9803 7.2777 85.489C7.3877 84.9903 7.55637 84.5723 7.7837 84.235C8.01104 83.8977 8.3007 83.641 8.6527 83.465C9.0047 83.2817 9.41904 83.19 9.8957 83.19C10.849 83.19 11.5494 83.5383 11.9967 84.235C12.4514 84.9317 12.6787 85.907 12.6787 87.161C12.6787 88.415 12.4514 89.3903 11.9967 90.087C11.5494 90.7837 10.849 91.132 9.8957 91.132ZM9.8957 90.076C10.1597 90.076 10.3834 90.0247 10.5667 89.922C10.7574 89.812 10.9114 89.658 11.0287 89.46C11.146 89.262 11.2304 89.0273 11.2817 88.756C11.333 88.4773 11.3587 88.1693 11.3587 87.832V86.49C11.3587 86.1527 11.333 85.8483 11.2817 85.577C11.2304 85.2983 11.146 85.06 11.0287 84.862C10.9114 84.664 10.7574 84.5137 10.5667 84.411C10.3834 84.301 10.1597 84.246 9.8957 84.246C9.6317 84.246 9.40437 84.301 9.2137 84.411C9.03037 84.5137 8.88004 84.664 8.7627 84.862C8.64537 85.06 8.56104 85.2983 8.5097 85.577C8.45837 85.8483 8.4327 86.1527 8.4327 86.49V87.832C8.4327 88.1693 8.45837 88.4773 8.5097 88.756C8.56104 89.0273 8.64537 89.262 8.7627 89.46C8.88004 89.658 9.03037 89.812 9.2137 89.922C9.40437 90.0247 9.6317 90.076 9.8957 90.076ZM15.1824 91L20.5064 83.322H21.6174L16.2934 91H15.1824ZM15.6774 87.546C15.0834 87.546 14.6287 87.3627 14.3134 86.996C13.9981 86.622 13.8404 86.0793 13.8404 85.368C13.8404 84.6567 13.9981 84.1177 14.3134 83.751C14.6287 83.377 15.0834 83.19 15.6774 83.19C16.2714 83.19 16.7261 83.377 17.0414 83.751C17.3567 84.1177 17.5144 84.6567 17.5144 85.368C17.5144 86.0793 17.3567 86.622 17.0414 86.996C16.7261 87.3627 16.2714 87.546 15.6774 87.546ZM15.6774 86.809C16.1981 86.809 16.4584 86.4313 16.4584 85.676V85.06C16.4584 84.3047 16.1981 83.927 15.6774 83.927C15.1567 83.927 14.8964 84.3047 14.8964 85.06V85.676C14.8964 86.4313 15.1567 86.809 15.6774 86.809ZM21.1224 91.132C20.5284 91.132 20.0737 90.9487 19.7584 90.582C19.4431 90.208 19.2854 89.6653 19.2854 88.954C19.2854 88.2427 19.4431 87.7037 19.7584 87.337C20.0737 86.963 20.5284 86.776 21.1224 86.776C21.7164 86.776 22.1711 86.963 22.4864 87.337C22.8017 87.7037 22.9594 88.2427 22.9594 88.954C22.9594 89.6653 22.8017 90.208 22.4864 90.582C22.1711 90.9487 21.7164 91.132 21.1224 91.132ZM21.1224 90.395C21.6431 90.395 21.9034 90.0173 21.9034 89.262V88.646C21.9034 87.8907 21.6431 87.513 21.1224 87.513C20.6017 87.513 20.3414 87.8907 20.3414 88.646V89.262C20.3414 90.0173 20.6017 90.395 21.1224 90.395Z"
    fill="black" />
  <path
    d="M3.949 59V57.504H0.385V56.437L3.498 51.322H5.126V56.525H6.171V57.504H5.126V59H3.949ZM1.441 56.525H3.949V52.455H3.872L1.441 56.525ZM9.8957 59.132C9.41904 59.132 9.0047 59.044 8.6527 58.868C8.3007 58.6847 8.01104 58.4243 7.7837 58.087C7.55637 57.7497 7.3877 57.3353 7.2777 56.844C7.1677 56.3527 7.1127 55.7917 7.1127 55.161C7.1127 54.5377 7.1677 53.9803 7.2777 53.489C7.3877 52.9903 7.55637 52.5723 7.7837 52.235C8.01104 51.8977 8.3007 51.641 8.6527 51.465C9.0047 51.2817 9.41904 51.19 9.8957 51.19C10.849 51.19 11.5494 51.5383 11.9967 52.235C12.4514 52.9317 12.6787 53.907 12.6787 55.161C12.6787 56.415 12.4514 57.3903 11.9967 58.087C11.5494 58.7837 10.849 59.132 9.8957 59.132ZM9.8957 58.076C10.1597 58.076 10.3834 58.0247 10.5667 57.922C10.7574 57.812 10.9114 57.658 11.0287 57.46C11.146 57.262 11.2304 57.0273 11.2817 56.756C11.333 56.4773 11.3587 56.1693 11.3587 55.832V54.49C11.3587 54.1527 11.333 53.8483 11.2817 53.577C11.2304 53.2983 11.146 53.06 11.0287 52.862C10.9114 52.664 10.7574 52.5137 10.5667 52.411C10.3834 52.301 10.1597 52.246 9.8957 52.246C9.6317 52.246 9.40437 52.301 9.2137 52.411C9.03037 52.5137 8.88004 52.664 8.7627 52.862C8.64537 53.06 8.56104 53.2983 8.5097 53.577C8.45837 53.8483 8.4327 54.1527 8.4327 54.49V55.832C8.4327 56.1693 8.45837 56.4773 8.5097 56.756C8.56104 57.0273 8.64537 57.262 8.7627 57.46C8.88004 57.658 9.03037 57.812 9.2137 57.922C9.40437 58.0247 9.6317 58.076 9.8957 58.076ZM15.1824 59L20.5064 51.322H21.6174L16.2934 59H15.1824ZM15.6774 55.546C15.0834 55.546 14.6287 55.3627 14.3134 54.996C13.9981 54.622 13.8404 54.0793 13.8404 53.368C13.8404 52.6567 13.9981 52.1177 14.3134 51.751C14.6287 51.377 15.0834 51.19 15.6774 51.19C16.2714 51.19 16.7261 51.377 17.0414 51.751C17.3567 52.1177 17.5144 52.6567 17.5144 53.368C17.5144 54.0793 17.3567 54.622 17.0414 54.996C16.7261 55.3627 16.2714 55.546 15.6774 55.546ZM15.6774 54.809C16.1981 54.809 16.4584 54.4313 16.4584 53.676V53.06C16.4584 52.3047 16.1981 51.927 15.6774 51.927C15.1567 51.927 14.8964 52.3047 14.8964 53.06V53.676C14.8964 54.4313 15.1567 54.809 15.6774 54.809ZM21.1224 59.132C20.5284 59.132 20.0737 58.9487 19.7584 58.582C19.4431 58.208 19.2854 57.6653 19.2854 56.954C19.2854 56.2427 19.4431 55.7037 19.7584 55.337C20.0737 54.963 20.5284 54.776 21.1224 54.776C21.7164 54.776 22.1711 54.963 22.4864 55.337C22.8017 55.7037 22.9594 56.2427 22.9594 56.954C22.9594 57.6653 22.8017 58.208 22.4864 58.582C22.1711 58.9487 21.7164 59.132 21.1224 59.132ZM21.1224 58.395C21.6431 58.395 21.9034 58.0173 21.9034 57.262V56.646C21.9034 55.8907 21.6431 55.513 21.1224 55.513C20.6017 55.513 20.3414 55.8907 20.3414 56.646V57.262C20.3414 58.0173 20.6017 58.395 21.1224 58.395Z"
    fill="black" />
  <path
    d="M6.588 29.4H3.178L2.98 32.117H3.057C3.145 31.963 3.23667 31.8273 3.332 31.71C3.42733 31.5853 3.53733 31.479 3.662 31.391C3.78667 31.303 3.92967 31.237 4.091 31.193C4.25233 31.1417 4.443 31.116 4.663 31.116C4.993 31.116 5.29733 31.171 5.576 31.281C5.862 31.391 6.10767 31.5487 6.313 31.754C6.52567 31.9593 6.69067 32.2123 6.808 32.513C6.92533 32.8063 6.984 33.14 6.984 33.514C6.984 33.8953 6.92167 34.2473 6.797 34.57C6.67967 34.8927 6.50367 35.1713 6.269 35.406C6.03433 35.6333 5.74467 35.813 5.4 35.945C5.06267 36.0697 4.67767 36.132 4.245 36.132C3.90033 36.132 3.596 36.0917 3.332 36.011C3.068 35.9377 2.83333 35.8387 2.628 35.714C2.43 35.582 2.254 35.4353 2.1 35.274C1.95333 35.1053 1.82133 34.933 1.704 34.757L2.606 34.042C2.70133 34.196 2.80033 34.3353 2.903 34.46C3.00567 34.5847 3.123 34.6947 3.255 34.79C3.387 34.8853 3.53367 34.9587 3.695 35.01C3.86367 35.0613 4.05433 35.087 4.267 35.087C4.72167 35.087 5.07 34.9623 5.312 34.713C5.56133 34.4637 5.686 34.119 5.686 33.679V33.547C5.686 33.107 5.56133 32.7623 5.312 32.513C5.07 32.2637 4.72167 32.139 4.267 32.139C3.937 32.139 3.673 32.2013 3.475 32.326C3.277 32.4507 3.10833 32.59 2.969 32.744L1.946 32.601L2.232 28.322H6.588V29.4ZM10.8957 36.132C10.419 36.132 10.0047 36.044 9.6527 35.868C9.3007 35.6847 9.01104 35.4243 8.7837 35.087C8.55637 34.7497 8.3877 34.3353 8.2777 33.844C8.1677 33.3527 8.1127 32.7917 8.1127 32.161C8.1127 31.5377 8.1677 30.9803 8.2777 30.489C8.3877 29.9903 8.55637 29.5723 8.7837 29.235C9.01104 28.8977 9.3007 28.641 9.6527 28.465C10.0047 28.2817 10.419 28.19 10.8957 28.19C11.849 28.19 12.5494 28.5383 12.9967 29.235C13.4514 29.9317 13.6787 30.907 13.6787 32.161C13.6787 33.415 13.4514 34.3903 12.9967 35.087C12.5494 35.7837 11.849 36.132 10.8957 36.132ZM10.8957 35.076C11.1597 35.076 11.3834 35.0247 11.5667 34.922C11.7574 34.812 11.9114 34.658 12.0287 34.46C12.146 34.262 12.2304 34.0273 12.2817 33.756C12.333 33.4773 12.3587 33.1693 12.3587 32.832V31.49C12.3587 31.1527 12.333 30.8483 12.2817 30.577C12.2304 30.2983 12.146 30.06 12.0287 29.862C11.9114 29.664 11.7574 29.5137 11.5667 29.411C11.3834 29.301 11.1597 29.246 10.8957 29.246C10.6317 29.246 10.4044 29.301 10.2137 29.411C10.0304 29.5137 9.88004 29.664 9.7627 29.862C9.64537 30.06 9.56104 30.2983 9.5097 30.577C9.45837 30.8483 9.4327 31.1527 9.4327 31.49V32.832C9.4327 33.1693 9.45837 33.4773 9.5097 33.756C9.56104 34.0273 9.64537 34.262 9.7627 34.46C9.88004 34.658 10.0304 34.812 10.2137 34.922C10.4044 35.0247 10.6317 35.076 10.8957 35.076ZM16.1824 36L21.5064 28.322H22.6174L17.2934 36H16.1824ZM16.6774 32.546C16.0834 32.546 15.6287 32.3627 15.3134 31.996C14.9981 31.622 14.8404 31.0793 14.8404 30.368C14.8404 29.6567 14.9981 29.1177 15.3134 28.751C15.6287 28.377 16.0834 28.19 16.6774 28.19C17.2714 28.19 17.7261 28.377 18.0414 28.751C18.3567 29.1177 18.5144 29.6567 18.5144 30.368C18.5144 31.0793 18.3567 31.622 18.0414 31.996C17.7261 32.3627 17.2714 32.546 16.6774 32.546ZM16.6774 31.809C17.1981 31.809 17.4584 31.4313 17.4584 30.676V30.06C17.4584 29.3047 17.1981 28.927 16.6774 28.927C16.1567 28.927 15.8964 29.3047 15.8964 30.06V30.676C15.8964 31.4313 16.1567 31.809 16.6774 31.809ZM22.1224 36.132C21.5284 36.132 21.0737 35.9487 20.7584 35.582C20.4431 35.208 20.2854 34.6653 20.2854 33.954C20.2854 33.2427 20.4431 32.7037 20.7584 32.337C21.0737 31.963 21.5284 31.776 22.1224 31.776C22.7164 31.776 23.1711 31.963 23.4864 32.337C23.8017 32.7037 23.9594 33.2427 23.9594 33.954C23.9594 34.6653 23.8017 35.208 23.4864 35.582C23.1711 35.9487 22.7164 36.132 22.1224 36.132ZM22.1224 35.395C22.6431 35.395 22.9034 35.0173 22.9034 34.262V33.646C22.9034 32.8907 22.6431 32.513 22.1224 32.513C21.6017 32.513 21.3414 32.8907 21.3414 33.646V34.262C21.3414 35.0173 21.6017 35.395 22.1224 35.395Z"
    fill="black" />
</svg>